<svg xmlns="http://www.w3.org/2000/svg" viewBox="0 0 100 100" fill="none" stroke="currentColor" stroke-width="5" stroke-linecap="round" stroke-linejoin="round">
  <path d="M 20 25 A 5 5 0 1 0 30 25 A 5 5 0 1 0 20 25 Z"/>
  <path d="M 70 20 A 5 5 0 1 0 80 20 A 5 5 0 1 0 70 20 Z"/>
  <path d="M 45 45 A 5 5 0 1 0 55 45 A 5 5 0 1 0 45 45 Z"/>
  <path d="M 15 70 A 5 5 0 1 0 25 70 A 5 5 0 1 0 15 70 Z"/>
  <path d="M 75 75 A 5 5 0 1 0 85 75 A 5 5 0 1 0 75 75 Z"/>
  <path d="M 25 25 L 45 45"/>
  <path d="M 75 20 L 50 45"/>
  <path d="M 50 45 L 20 70"/>
  <path d="M 50 45 L 80 75"/>
  <path d="M 25 70 L 75 75"/>
</svg>
